<?xml version="1.0" standalone="no"?>
<!DOCTYPE svg PUBLIC "-//W3C//DTD SVG 20010904//EN"
 "http://www.w3.org/TR/2001/REC-SVG-20010904/DTD/svg10.dtd">
<svg version="1.0" xmlns="http://www.w3.org/2000/svg"
 width="256.000000pt" height="256.000000pt" viewBox="0 0 256.000000 256.000000"
 preserveAspectRatio="xMidYMid meet">

<g transform="translate(0.000000,256.000000) scale(0.100000,-0.100000)"
fill="#000000" stroke="none">
<path d="M541 2294 c-30 -8 -81 -32 -114 -54 -32 -22 -66 -40 -74 -40 -7 0
-63 19 -124 41 -60 23 -112 39 -116 36 -3 -4 16 -48 43 -99 27 -51 65 -124 84
-163 l35 -70 0 -656 0 -655 -57 -115 c-31 -62 -67 -131 -79 -151 -13 -21 -20
-41 -16 -44 4 -4 56 14 116 40 59 25 115 46 122 46 20 0 89 -59 89 -75 0 -49
140 -57 907 -53 450 3 668 8 691 16 50 17 177 149 209 218 l28 59 3 331 3 331
72 31 c40 17 92 39 117 48 53 20 74 35 63 44 -4 4 -46 22 -93 39 -47 18 -102
40 -122 48 l-36 15 -4 282 c-4 262 -5 285 -26 337 -41 102 -129 180 -241 213
-48 14 -142 16 -740 15 -567 0 -695 -3 -740 -15z m1513 -69 c65 -33 122 -92
158 -163 22 -45 23 -57 26 -309 2 -193 0 -263 -8 -263 -12 0 -411 147 -490
180 -25 11 -88 35 -140 54 -52 19 -192 72 -310 117 -118 45 -244 93 -280 106
-36 13 -74 28 -85 32 -19 9 -73 30 -351 135 -67 25 -127 46 -134 46 -37 0 64
70 130 91 14 4 340 7 725 6 l700 -2 59 -30z m-1591 -658 c71 -138 128 -256
128 -262 -2 -26 -256 -543 -262 -533 -8 13 -8 1048 0 1048 3 0 64 -114 134
-253z m1775 -707 c-3 -240 -4 -246 -29 -300 -33 -70 -99 -136 -169 -169 l-55
-26 -700 0 -700 0 -68 33 c-37 18 -67 37 -67 41 0 4 17 15 38 23 88 37 170 72
217 93 69 32 418 183 485 210 30 13 161 69 290 125 129 56 305 130 390 166 85
35 202 83 260 108 l105 45 3 -52 c2 -29 2 -162 0 -297z"/>
</g>
</svg>
